<?xml version="1.0" ?><!DOCTYPE svg  PUBLIC '-//W3C//DTD SVG 1.1//EN'  'http://www.w3.org/Graphics/SVG/1.1/DTD/svg11.dtd'><svg enable-background="new 0 0 500 500" height="500px" id="Layer_1" version="1.1" viewBox="0 0 500 500" width="500px" xml:space="preserve" xmlns="http://www.w3.org/2000/svg" xmlns:xlink="http://www.w3.org/1999/xlink"><g><path d="   M231.492,81.061c-41.432-41.396-109.002-41.396-150.41,0c-41.443,41.443-41.443,109.014,0,150.434   c41.408,41.419,108.978,41.419,150.41,0C272.924,190.074,272.924,122.504,231.492,81.061" fill="none" stroke="#130B7A" stroke-linecap="round" stroke-linejoin="round" stroke-miterlimit="2.6131" stroke-width="10"/><line fill="none" stroke="#130B7A" stroke-linecap="round" stroke-linejoin="round" stroke-miterlimit="2.6131" stroke-width="10" x1="234.586" x2="284.315" y1="234.6" y2="284.317"/><path d="   M439.882,391.008c13.491,13.526,13.491,35.397,0,48.888" fill="none" stroke="#130B7A" stroke-linecap="round" stroke-linejoin="round" stroke-miterlimit="2.6131" stroke-width="10"/><path d="   M439.882,439.896c-13.502,13.455-35.361,13.455-48.863,0" fill="none" stroke="#130B7A" stroke-linecap="round" stroke-linejoin="round" stroke-miterlimit="2.6131" stroke-width="10"/><line fill="none" stroke="#130B7A" stroke-linecap="round" stroke-linejoin="round" stroke-miterlimit="2.6131" stroke-width="10" x1="391.019" x2="284.315" y1="439.896" y2="333.17"/><path d="   M284.315,333.17c-13.49-13.49-13.49-35.362,0-48.853" fill="none" stroke="#130B7A" stroke-linecap="round" stroke-linejoin="round" stroke-miterlimit="2.6131" stroke-width="10"/><path d="   M284.315,284.317c13.491-13.49,35.362-13.49,48.864,0" fill="none" stroke="#130B7A" stroke-linecap="round" stroke-linejoin="round" stroke-miterlimit="2.6131" stroke-width="10"/><line fill="none" stroke="#130B7A" stroke-linecap="round" stroke-linejoin="round" stroke-miterlimit="2.6131" stroke-width="10" x1="333.18" x2="439.882" y1="284.317" y2="391.008"/><path d="   M150.68,229.526c20.165,1.244,40.755-5.809,56.107-21.125c28.38-28.403,28.38-74.683,0.013-103.063   c-9.081-9.033-19.951-15.209-31.51-18.493" fill="none" stroke="#130B7A" stroke-linecap="round" stroke-linejoin="round" stroke-miterlimit="2.6131" stroke-width="10"/></g></svg>